<?xml version="1.0" encoding="UTF-8"?>
<svg id="Layer_1" data-name="Layer 1" xmlns="http://www.w3.org/2000/svg" viewBox="0 0 32 32" width="32" height="32">
  <defs>
    <style>
      .cls-1 { fill: #ce1e1a; }
      .cls-2 { fill: #fff; }
      .cls-3 { fill: #fbb03b; }
    </style>
  </defs>
  <g transform="scale(0.025) translate(40, 100)"> 
    <path class="cls-2" d="M282.0624,677.8811c-41.594-49.7937-83.1879-96.6306-124.7818-139.0808v93.9607c-16.6579,3.0926-33.3156,6.8888-49.9733,11.4805v-231.0124c41.5942,38.7071,83.1885,82.3739,124.7827,129.5699v-93.9607c16.6575-1.192,33.3149-1.8179,49.9724-1.9696-.0001,77.0042-.0001,154.0084,0,231.0124Z"/>
    <path class="cls-2" d="M370.9339,537.1201c-.0008,25.141,19.7501,46.2933,44.8857,48.9243,25.1372,2.6181,44.8857-14.5872,44.8857-39.7421.0004-3.2924.0004-87.0776,0-87.0785,16.6575,2.0645,33.3149,4.2747,49.9724,6.5389-.0006.0001.0002,83.7864,0,87.0785-.0002,52.4812-42.4911,88.7167-94.8581,83.1764-52.3675-5.6242-94.86-49.2679-94.8588-101.6062-.0001-3.2921-.0001-87.0777,0-87.0785,16.6577.5308,33.3154,1.4645,49.9731,2.7087-.0005.0001-.0005,83.7864,0,87.0785Z"/>
    <path class="cls-1" d="M540.9621,410.6474c-3.4114,4.3943-5.4045,10.0802-5.4047,16.5907.0006,16.4544,13.1659,31.7482,29.9238,34.0173,9.912,1.3436,18.7337-2.3852,24.1872-9.1557l-48.7063-41.4522Z"/>
    <path class="cls-3" d="M604.636,433.6094c.0002-16.7566-13.4651-31.6495-29.9238-33.88-10.2489-1.3875-19.1474,2.3203-24.5191,9.2396l48.7063,41.4522c3.6013-4.471,5.7368-10.2658,5.7366-16.8119Z"/>
    <path class="cls-2" d="M599.5493,652.2934c-16.6577-2.1655-33.3154-4.4402-49.9731-6.7327v-174.456c16.6577,2.2925,33.3154,4.5675,49.9731,6.7327v174.456Z"/>
    <path class="cls-2" d="M692.6086,612.6858c20.7471,1.7924,41.4943,3.1495,62.2416,3.894v49.9724c-37.4049-1.3422-74.8101-4.6757-112.2148-8.961v-236.9965c16.6577,1.9083,33.3156,3.6279,49.9732,5.067v187.0241Z"/>
    <path class="cls-2" d="M972.6928,444.6493v224.4293c-16.6575,4.5915-33.3149,8.3877-49.9724,11.4803v-29.0264c-13.1649,9.9254-28.1284,16.4536-44.8857,18.3678-52.3662,5.9397-94.5598-37.6304-94.5598-89.8069.0008-52.557,42.1928-93.6713,94.5598-99.6118,16.757-1.9138,31.721-.0625,44.8857,4.9736v-29.3255c16.6575-3.0925,33.3149-6.8887,49.9724-11.4803ZM833.2481,579.0157c0,24.8009,19.7495,43.7522,44.5866,40.9113,24.8369-2.7968,44.8859-26.4663,44.8857-51.2836,0-24.8564-20.0486-40.9857-44.8857-38.1886-24.8379,2.841-44.587,23.6878-44.5866,48.5609Z"/>
  </g>
</svg>
